solid 
facet normal -1 -0 -7.54979e-08
 outer loop
  vertex 0 0 0
  vertex 0 2 0
  vertex 1.307662e-07 1 -1.7320508
 endloop
endfacet
facet normal -1 0 0
 outer loop
  vertex 16 -2 3.4641027
  vertex 16 -1 1.732052
  vertex 16 -2 1.2079664e-06
 endloop
endfacet
facet normal -1 0 0
 outer loop
  vertex 16 -2 3.4641027
  vertex 16 -2 1.2079664e-06
  vertex 16 -4 1.2079664e-06
 endloop
endfacet
facet normal 3.774895e-08 0.8660254 -0.5
 outer loop
  vertex 0 2 0
  vertex 16 2 1.2079664e-06
  vertex 16 1 -1.7320496
 endloop
endfacet
facet normal 3.7252903e-08 0.8660254 -0.5
 outer loop
  vertex 0 2 0
  vertex 16 1 -1.7320496
  vertex 1.307662e-07 1 -1.7320508
 endloop
endfacet
facet normal -1 0 -7.54979e-08
 outer loop
  vertex 0 0 0
  vertex 1.307662e-07 1 -1.7320508
  vertex 1.307662e-07 -1 -1.7320508
 endloop
endfacet
facet normal -1 0 0
 outer loop
  vertex 16 -2 3.4641027
  vertex 16 2 3.4641027
  vertex 16 1 1.732052
 endloop
endfacet
facet normal -1 0 0
 outer loop
  vertex 16 -2 3.4641027
  vertex 16 1 1.732052
  vertex 16 -1 1.732052
 endloop
endfacet
facet normal 7.4505806e-08 0 -1
 outer loop
  vertex 1.307662e-07 1 -1.7320508
  vertex 16 1 -1.7320496
  vertex 16 -1 -1.7320496
 endloop
endfacet
facet normal 7.4505806e-08 0 -1
 outer loop
  vertex 1.307662e-07 1 -1.7320508
  vertex 16 -1 -1.7320496
  vertex 1.307662e-07 -1 -1.7320508
 endloop
endfacet
facet normal -1 0 -7.54979e-08
 outer loop
  vertex 0 0 0
  vertex 1.307662e-07 -1 -1.7320508
  vertex 0 -2 0
 endloop
endfacet
facet normal -1 0 0
 outer loop
  vertex 16 2 3.4641027
  vertex 16 4 1.2079664e-06
  vertex 16 2 1.2079664e-06
 endloop
endfacet
facet normal -1 0 0
 outer loop
  vertex 16 2 3.4641027
  vertex 16 2 1.2079664e-06
  vertex 16 1 1.732052
 endloop
endfacet
facet normal 3.7252903e-08 -0.8660254 -0.5
 outer loop
  vertex 1.307662e-07 -1 -1.7320508
  vertex 16 -1 -1.7320496
  vertex 16 -2 1.2079664e-06
 endloop
endfacet
facet normal 3.774895e-08 -0.8660254 -0.5
 outer loop
  vertex 1.307662e-07 -1 -1.7320508
  vertex 16 -2 1.2079664e-06
  vertex 0 -2 0
 endloop
endfacet
facet normal -1 0 -7.54979e-08
 outer loop
  vertex 0 0 0
  vertex 0 -2 0
  vertex -1.307662e-07 -1 1.7320508
 endloop
endfacet
facet normal -1 -0 0
 outer loop
  vertex 16 1 -1.7320496
  vertex 16 2 1.2079664e-06
  vertex 16 4 1.2079664e-06
 endloop
endfacet
facet normal -1 -0 0
 outer loop
  vertex 16 1 -1.7320496
  vertex 16 4 1.2079664e-06
  vertex 16 2 -3.4641004
 endloop
endfacet
facet normal -3.774895e-08 -0.8660254 0.5
 outer loop
  vertex 0 -2 0
  vertex 16 -2 1.2079664e-06
  vertex 16 -1 1.732052
 endloop
endfacet
facet normal -3.7252903e-08 -0.8660254 0.5
 outer loop
  vertex 0 -2 0
  vertex 16 -1 1.732052
  vertex -1.307662e-07 -1 1.7320508
 endloop
endfacet
facet normal -1 -0 -7.54979e-08
 outer loop
  vertex 0 0 0
  vertex -1.307662e-07 -1 1.7320508
  vertex -1.307662e-07 1 1.7320508
 endloop
endfacet
facet normal -1 0 0
 outer loop
  vertex 16 -1 -1.7320496
  vertex 16 1 -1.7320496
  vertex 16 2 -3.4641004
 endloop
endfacet
facet normal -1 0 0
 outer loop
  vertex 16 -1 -1.7320496
  vertex 16 2 -3.4641004
  vertex 16 -2 -3.4641004
 endloop
endfacet
facet normal -7.4505806e-08 0 1
 outer loop
  vertex -1.307662e-07 -1 1.7320508
  vertex 16 -1 1.732052
  vertex 16 1 1.732052
 endloop
endfacet
facet normal -7.4505806e-08 0 1
 outer loop
  vertex -1.307662e-07 -1 1.7320508
  vertex 16 1 1.732052
  vertex -1.307662e-07 1 1.7320508
 endloop
endfacet
facet normal -1 0 -7.54979e-08
 outer loop
  vertex 0 0 0
  vertex -1.307662e-07 1 1.7320508
  vertex 0 2 0
 endloop
endfacet
facet normal -3.7252903e-08 0.8660254 0.5
 outer loop
  vertex -1.307662e-07 1 1.7320508
  vertex 16 1 1.732052
  vertex 16 2 1.2079664e-06
 endloop
endfacet
facet normal -3.774895e-08 0.8660254 0.5
 outer loop
  vertex -1.307662e-07 1 1.7320508
  vertex 16 2 1.2079664e-06
  vertex 0 2 0
 endloop
endfacet
facet normal 0.65465367 0.65465367 -0.3779645
 outer loop
  vertex 16 4 1.2079664e-06
  vertex 20 0 1.509958e-06
  vertex 16 2 -3.4641004
 endloop
endfacet
facet normal 0.6546537 0 -0.755929
 outer loop
  vertex 16 2 -3.4641004
  vertex 20 0 1.509958e-06
  vertex 16 -2 -3.4641004
 endloop
endfacet
facet normal 0.65465367 -0.65465367 -0.3779645
 outer loop
  vertex 16 -2 -3.4641004
  vertex 20 0 1.509958e-06
  vertex 16 -4 1.2079664e-06
 endloop
endfacet
facet normal 0.65465367 -0.65465367 0.3779645
 outer loop
  vertex 16 -4 1.2079664e-06
  vertex 20 0 1.509958e-06
  vertex 16 -2 3.4641027
 endloop
endfacet
facet normal -1 0 0
 outer loop
  vertex 16 -2 1.2079664e-06
  vertex 16 -1 -1.7320496
  vertex 16 -2 -3.4641004
 endloop
endfacet
facet normal -1 0 0
 outer loop
  vertex 16 -2 1.2079664e-06
  vertex 16 -2 -3.4641004
  vertex 16 -4 1.2079664e-06
 endloop
endfacet
facet normal 0.6546536 0 0.755929
 outer loop
  vertex 16 -2 3.4641027
  vertex 20 0 1.509958e-06
  vertex 16 2 3.4641027
 endloop
endfacet
facet normal 0.65465367 0.65465367 0.3779645
 outer loop
  vertex 16 2 3.4641027
  vertex 20 0 1.509958e-06
  vertex 16 4 1.2079664e-06
 endloop
endfacet
endsolid 
