solid 
facet normal -0 -0 -1
 outer loop
  vertex 0 0 0
  vertex 0 2 0
  vertex 1.7320508 1 0
 endloop
endfacet
facet normal -0 0 -1
 outer loop
  vertex -3.4641016 -2 16
  vertex -1.7320508 -1 16
  vertex 0 -2 16
 endloop
endfacet
facet normal 0 0 -1
 outer loop
  vertex -3.4641016 -2 16
  vertex 0 -2 16
  vertex 0 -4 16
 endloop
endfacet
facet normal 0.5 0.8660254 0
 outer loop
  vertex 0 2 0
  vertex 0 2 16
  vertex 1.7320508 1 16
 endloop
endfacet
facet normal 0.5 0.8660254 -0
 outer loop
  vertex 0 2 0
  vertex 1.7320508 1 16
  vertex 1.7320508 1 0
 endloop
endfacet
facet normal -0 0 -1
 outer loop
  vertex 0 0 0
  vertex 1.7320508 1 0
  vertex 1.7320508 -1 0
 endloop
endfacet
facet normal -0 -0 -1
 outer loop
  vertex -3.4641016 -2 16
  vertex -3.4641016 2 16
  vertex -1.7320508 1 16
 endloop
endfacet
facet normal -0 0 -1
 outer loop
  vertex -3.4641016 -2 16
  vertex -1.7320508 1 16
  vertex -1.7320508 -1 16
 endloop
endfacet
facet normal 1 -0 0
 outer loop
  vertex 1.7320508 1 0
  vertex 1.7320508 1 16
  vertex 1.7320508 -1 16
 endloop
endfacet
facet normal 1 -0 0
 outer loop
  vertex 1.7320508 1 0
  vertex 1.7320508 -1 16
  vertex 1.7320508 -1 0
 endloop
endfacet
facet normal 0 0 -1
 outer loop
  vertex 0 0 0
  vertex 1.7320508 -1 0
  vertex 0 -2 0
 endloop
endfacet
facet normal -0 0 -1
 outer loop
  vertex -3.4641016 2 16
  vertex 0 4 16
  vertex 0 2 16
 endloop
endfacet
facet normal 0 0 -1
 outer loop
  vertex -3.4641016 2 16
  vertex 0 2 16
  vertex -1.7320508 1 16
 endloop
endfacet
facet normal 0.5 -0.8660254 0
 outer loop
  vertex 1.7320508 -1 0
  vertex 1.7320508 -1 16
  vertex 0 -2 16
 endloop
endfacet
facet normal 0.5 -0.8660254 0
 outer loop
  vertex 1.7320508 -1 0
  vertex 0 -2 16
  vertex 0 -2 0
 endloop
endfacet
facet normal 0 0 -1
 outer loop
  vertex 0 0 0
  vertex 0 -2 0
  vertex -1.7320508 -1 0
 endloop
endfacet
facet normal 0 0 -1
 outer loop
  vertex 1.7320508 1 16
  vertex 0 2 16
  vertex 0 4 16
 endloop
endfacet
facet normal -0 -0 -1
 outer loop
  vertex 1.7320508 1 16
  vertex 0 4 16
  vertex 3.4641016 2 16
 endloop
endfacet
facet normal -0.5 -0.8660254 -0
 outer loop
  vertex 0 -2 0
  vertex 0 -2 16
  vertex -1.7320508 -1 16
 endloop
endfacet
facet normal -0.5 -0.8660254 0
 outer loop
  vertex 0 -2 0
  vertex -1.7320508 -1 16
  vertex -1.7320508 -1 0
 endloop
endfacet
facet normal 0 0 -1
 outer loop
  vertex 0 0 0
  vertex -1.7320508 -1 0
  vertex -1.7320508 1 0
 endloop
endfacet
facet normal 0 -0 -1
 outer loop
  vertex 1.7320508 -1 16
  vertex 1.7320508 1 16
  vertex 3.4641016 2 16
 endloop
endfacet
facet normal -0 0 -1
 outer loop
  vertex 1.7320508 -1 16
  vertex 3.4641016 2 16
  vertex 3.4641016 -2 16
 endloop
endfacet
facet normal -1 -0 -0
 outer loop
  vertex -1.7320508 -1 0
  vertex -1.7320508 -1 16
  vertex -1.7320508 1 16
 endloop
endfacet
facet normal -1 -0 0
 outer loop
  vertex -1.7320508 -1 0
  vertex -1.7320508 1 16
  vertex -1.7320508 1 0
 endloop
endfacet
facet normal 0 -0 -1
 outer loop
  vertex 0 0 0
  vertex -1.7320508 1 0
  vertex 0 2 0
 endloop
endfacet
facet normal -0.5 0.8660254 0
 outer loop
  vertex -1.7320508 1 0
  vertex -1.7320508 1 16
  vertex 0 2 16
 endloop
endfacet
facet normal -0.5 0.8660254 0
 outer loop
  vertex -1.7320508 1 0
  vertex 0 2 16
  vertex 0 2 0
 endloop
endfacet
facet normal 0.3779645 0.65465367 0.65465367
 outer loop
  vertex 0 4 16
  vertex 0 0 20
  vertex 3.4641016 2 16
 endloop
endfacet
facet normal 0.755929 0 0.65465367
 outer loop
  vertex 3.4641016 2 16
  vertex 0 0 20
  vertex 3.4641016 -2 16
 endloop
endfacet
facet normal 0.3779645 -0.65465367 0.65465367
 outer loop
  vertex 3.4641016 -2 16
  vertex 0 0 20
  vertex 0 -4 16
 endloop
endfacet
facet normal -0.3779645 -0.65465367 0.65465367
 outer loop
  vertex 0 -4 16
  vertex 0 0 20
  vertex -3.4641016 -2 16
 endloop
endfacet
facet normal -0 0 -1
 outer loop
  vertex 0 -2 16
  vertex 1.7320508 -1 16
  vertex 3.4641016 -2 16
 endloop
endfacet
facet normal 0 0 -1
 outer loop
  vertex 0 -2 16
  vertex 3.4641016 -2 16
  vertex 0 -4 16
 endloop
endfacet
facet normal -0.755929 0 0.65465367
 outer loop
  vertex -3.4641016 -2 16
  vertex 0 0 20
  vertex -3.4641016 2 16
 endloop
endfacet
facet normal -0.3779645 0.65465367 0.65465367
 outer loop
  vertex -3.4641016 2 16
  vertex 0 0 20
  vertex 0 4 16
 endloop
endfacet
endsolid 
