solid 
facet normal 0 -1 4.371139e-08
 outer loop
  vertex 0 0 0
  vertex 0 -8.742278e-08 -2
  vertex 1.7320508 -4.371139e-08 -1
 endloop
endfacet
facet normal -0 -1 0
 outer loop
  vertex -3.4641016 16 1.9999993
  vertex -1.7320508 16 0.9999993
  vertex 0 16 1.9999993
 endloop
endfacet
facet normal -0 -1 -0
 outer loop
  vertex -3.4641016 16 1.9999993
  vertex 0 16 1.9999993
  vertex 0 16 3.9999993
 endloop
endfacet
facet normal 0.5 -3.871435e-08 -0.8660254
 outer loop
  vertex 0 -8.742278e-08 -2
  vertex 0 16 -2.0000007
  vertex 1.7320508 16 -1.0000007
 endloop
endfacet
facet normal 0.5 -3.871435e-08 -0.8660254
 outer loop
  vertex 0 -8.742278e-08 -2
  vertex 1.7320508 16 -1.0000007
  vertex 1.7320508 -4.371139e-08 -1
 endloop
endfacet
facet normal 0 -1 4.371139e-08
 outer loop
  vertex 0 0 0
  vertex 1.7320508 -4.371139e-08 -1
  vertex 1.7320508 4.371139e-08 1
 endloop
endfacet
facet normal -0 -1 0
 outer loop
  vertex -3.4641016 16 1.9999993
  vertex -3.4641016 16 -2.0000007
  vertex -1.7320508 16 -1.0000007
 endloop
endfacet
facet normal -0 -1 -0
 outer loop
  vertex -3.4641016 16 1.9999993
  vertex -1.7320508 16 -1.0000007
  vertex -1.7320508 16 0.9999993
 endloop
endfacet
facet normal 1 0 0
 outer loop
  vertex 1.7320508 -4.371139e-08 -1
  vertex 1.7320508 16 -1.0000007
  vertex 1.7320508 16 0.9999993
 endloop
endfacet
facet normal 1 0 0
 outer loop
  vertex 1.7320508 -4.371139e-08 -1
  vertex 1.7320508 16 0.9999993
  vertex 1.7320508 4.371139e-08 1
 endloop
endfacet
facet normal 0 -1 4.371139e-08
 outer loop
  vertex 0 0 0
  vertex 1.7320508 4.371139e-08 1
  vertex 0 8.742278e-08 2
 endloop
endfacet
facet normal -0 -1 -0
 outer loop
  vertex -3.4641016 16 -2.0000007
  vertex 0 16 -4.0000005
  vertex 0 16 -2.0000007
 endloop
endfacet
facet normal -0 -1 -0
 outer loop
  vertex -3.4641016 16 -2.0000007
  vertex 0 16 -2.0000007
  vertex -1.7320508 16 -1.0000007
 endloop
endfacet
facet normal 0.5 3.871435e-08 0.8660254
 outer loop
  vertex 1.7320508 4.371139e-08 1
  vertex 1.7320508 16 0.9999993
  vertex 0 16 1.9999993
 endloop
endfacet
facet normal 0.5 3.871435e-08 0.8660254
 outer loop
  vertex 1.7320508 4.371139e-08 1
  vertex 0 16 1.9999993
  vertex 0 8.742278e-08 2
 endloop
endfacet
facet normal 0 -1 4.371139e-08
 outer loop
  vertex 0 0 0
  vertex 0 8.742278e-08 2
  vertex -1.7320508 4.371139e-08 1
 endloop
endfacet
facet normal 0 -1 0
 outer loop
  vertex 1.7320508 16 -1.0000007
  vertex 0 16 -2.0000007
  vertex 0 16 -4.0000005
 endloop
endfacet
facet normal -0 -1 0
 outer loop
  vertex 1.7320508 16 -1.0000007
  vertex 0 16 -4.0000005
  vertex 3.4641016 16 -2.0000007
 endloop
endfacet
facet normal -0.5 3.871435e-08 0.8660254
 outer loop
  vertex 0 8.742278e-08 2
  vertex 0 16 1.9999993
  vertex -1.7320508 16 0.9999993
 endloop
endfacet
facet normal -0.5 3.871435e-08 0.8660254
 outer loop
  vertex 0 8.742278e-08 2
  vertex -1.7320508 16 0.9999993
  vertex -1.7320508 4.371139e-08 1
 endloop
endfacet
facet normal 0 -1 4.371139e-08
 outer loop
  vertex 0 0 0
  vertex -1.7320508 4.371139e-08 1
  vertex -1.7320508 -4.371139e-08 -1
 endloop
endfacet
facet normal 0 -1 0
 outer loop
  vertex 1.7320508 16 0.9999993
  vertex 1.7320508 16 -1.0000007
  vertex 3.4641016 16 -2.0000007
 endloop
endfacet
facet normal -0 -1 -0
 outer loop
  vertex 1.7320508 16 0.9999993
  vertex 3.4641016 16 -2.0000007
  vertex 3.4641016 16 1.9999993
 endloop
endfacet
facet normal -1 0 0
 outer loop
  vertex -1.7320508 4.371139e-08 1
  vertex -1.7320508 16 0.9999993
  vertex -1.7320508 16 -1.0000007
 endloop
endfacet
facet normal -1 0 0
 outer loop
  vertex -1.7320508 4.371139e-08 1
  vertex -1.7320508 16 -1.0000007
  vertex -1.7320508 -4.371139e-08 -1
 endloop
endfacet
facet normal 0 -1 4.371139e-08
 outer loop
  vertex 0 0 0
  vertex -1.7320508 -4.371139e-08 -1
  vertex 0 -8.742278e-08 -2
 endloop
endfacet
facet normal -0.5 -3.871435e-08 -0.8660254
 outer loop
  vertex -1.7320508 -4.371139e-08 -1
  vertex -1.7320508 16 -1.0000007
  vertex 0 16 -2.0000007
 endloop
endfacet
facet normal -0.5 -3.871435e-08 -0.8660254
 outer loop
  vertex -1.7320508 -4.371139e-08 -1
  vertex 0 16 -2.0000007
  vertex 0 -8.742278e-08 -2
 endloop
endfacet
facet normal 0.37796444 0.65465367 -0.6546537
 outer loop
  vertex 0 16 -4.0000005
  vertex 0 20 -8.742278e-07
  vertex 3.4641016 16 -2.0000007
 endloop
endfacet
facet normal 0.755929 0.6546537 0
 outer loop
  vertex 3.4641016 16 -2.0000007
  vertex 0 20 -8.742278e-07
  vertex 3.4641016 16 1.9999993
 endloop
endfacet
facet normal 0.37796444 0.65465367 0.65465367
 outer loop
  vertex 3.4641016 16 1.9999993
  vertex 0 20 -8.742278e-07
  vertex 0 16 3.9999993
 endloop
endfacet
facet normal -0.37796444 0.65465367 0.65465367
 outer loop
  vertex 0 16 3.9999993
  vertex 0 20 -8.742278e-07
  vertex -3.4641016 16 1.9999993
 endloop
endfacet
facet normal -0 -1 0
 outer loop
  vertex 0 16 1.9999993
  vertex 1.7320508 16 0.9999993
  vertex 3.4641016 16 1.9999993
 endloop
endfacet
facet normal -0 -1 -0
 outer loop
  vertex 0 16 1.9999993
  vertex 3.4641016 16 1.9999993
  vertex 0 16 3.9999993
 endloop
endfacet
facet normal -0.755929 0.6546537 0
 outer loop
  vertex -3.4641016 16 1.9999993
  vertex 0 20 -8.742278e-07
  vertex -3.4641016 16 -2.0000007
 endloop
endfacet
facet normal -0.37796444 0.65465367 -0.6546537
 outer loop
  vertex -3.4641016 16 -2.0000007
  vertex 0 20 -8.742278e-07
  vertex 0 16 -4.0000005
 endloop
endfacet
endsolid 
