solid 
facet normal -0 -0 -1
 outer loop
  vertex 0 0 0
  vertex 0 1 0
  vertex 0.8660254 0.5 0
 endloop
endfacet
facet normal -0 0 -1
 outer loop
  vertex -1.7320508 -1 8
  vertex -0.8660254 -0.5 8
  vertex 0 -1 8
 endloop
endfacet
facet normal 0 0 -1
 outer loop
  vertex -1.7320508 -1 8
  vertex 0 -1 8
  vertex 0 -2 8
 endloop
endfacet
facet normal 0.5 0.8660254 0
 outer loop
  vertex 0 1 0
  vertex 0 1 8
  vertex 0.8660254 0.5 8
 endloop
endfacet
facet normal 0.5 0.8660254 -0
 outer loop
  vertex 0 1 0
  vertex 0.8660254 0.5 8
  vertex 0.8660254 0.5 0
 endloop
endfacet
facet normal -0 0 -1
 outer loop
  vertex 0 0 0
  vertex 0.8660254 0.5 0
  vertex 0.8660254 -0.5 0
 endloop
endfacet
facet normal -0 -0 -1
 outer loop
  vertex -1.7320508 -1 8
  vertex -1.7320508 1 8
  vertex -0.8660254 0.5 8
 endloop
endfacet
facet normal -0 0 -1
 outer loop
  vertex -1.7320508 -1 8
  vertex -0.8660254 0.5 8
  vertex -0.8660254 -0.5 8
 endloop
endfacet
facet normal 1 -0 0
 outer loop
  vertex 0.8660254 0.5 0
  vertex 0.8660254 0.5 8
  vertex 0.8660254 -0.5 8
 endloop
endfacet
facet normal 1 -0 0
 outer loop
  vertex 0.8660254 0.5 0
  vertex 0.8660254 -0.5 8
  vertex 0.8660254 -0.5 0
 endloop
endfacet
facet normal 0 0 -1
 outer loop
  vertex 0 0 0
  vertex 0.8660254 -0.5 0
  vertex 0 -1 0
 endloop
endfacet
facet normal -0 0 -1
 outer loop
  vertex -1.7320508 1 8
  vertex 0 2 8
  vertex 0 1 8
 endloop
endfacet
facet normal 0 0 -1
 outer loop
  vertex -1.7320508 1 8
  vertex 0 1 8
  vertex -0.8660254 0.5 8
 endloop
endfacet
facet normal 0.5 -0.8660254 0
 outer loop
  vertex 0.8660254 -0.5 0
  vertex 0.8660254 -0.5 8
  vertex 0 -1 8
 endloop
endfacet
facet normal 0.5 -0.8660254 0
 outer loop
  vertex 0.8660254 -0.5 0
  vertex 0 -1 8
  vertex 0 -1 0
 endloop
endfacet
facet normal 0 0 -1
 outer loop
  vertex 0 0 0
  vertex 0 -1 0
  vertex -0.8660254 -0.5 0
 endloop
endfacet
facet normal 0 0 -1
 outer loop
  vertex 0.8660254 0.5 8
  vertex 0 1 8
  vertex 0 2 8
 endloop
endfacet
facet normal -0 -0 -1
 outer loop
  vertex 0.8660254 0.5 8
  vertex 0 2 8
  vertex 1.7320508 1 8
 endloop
endfacet
facet normal -0.5 -0.8660254 -0
 outer loop
  vertex 0 -1 0
  vertex 0 -1 8
  vertex -0.8660254 -0.5 8
 endloop
endfacet
facet normal -0.5 -0.8660254 0
 outer loop
  vertex 0 -1 0
  vertex -0.8660254 -0.5 8
  vertex -0.8660254 -0.5 0
 endloop
endfacet
facet normal 0 0 -1
 outer loop
  vertex 0 0 0
  vertex -0.8660254 -0.5 0
  vertex -0.8660254 0.5 0
 endloop
endfacet
facet normal 0 -0 -1
 outer loop
  vertex 0.8660254 -0.5 8
  vertex 0.8660254 0.5 8
  vertex 1.7320508 1 8
 endloop
endfacet
facet normal -0 0 -1
 outer loop
  vertex 0.8660254 -0.5 8
  vertex 1.7320508 1 8
  vertex 1.7320508 -1 8
 endloop
endfacet
facet normal -1 -0 -0
 outer loop
  vertex -0.8660254 -0.5 0
  vertex -0.8660254 -0.5 8
  vertex -0.8660254 0.5 8
 endloop
endfacet
facet normal -1 -0 0
 outer loop
  vertex -0.8660254 -0.5 0
  vertex -0.8660254 0.5 8
  vertex -0.8660254 0.5 0
 endloop
endfacet
facet normal 0 -0 -1
 outer loop
  vertex 0 0 0
  vertex -0.8660254 0.5 0
  vertex 0 1 0
 endloop
endfacet
facet normal -0.5 0.8660254 0
 outer loop
  vertex -0.8660254 0.5 0
  vertex -0.8660254 0.5 8
  vertex 0 1 8
 endloop
endfacet
facet normal -0.5 0.8660254 0
 outer loop
  vertex -0.8660254 0.5 0
  vertex 0 1 8
  vertex 0 1 0
 endloop
endfacet
facet normal 0.3779645 0.65465367 0.65465367
 outer loop
  vertex 0 2 8
  vertex 0 0 10
  vertex 1.7320508 1 8
 endloop
endfacet
facet normal 0.755929 0 0.65465367
 outer loop
  vertex 1.7320508 1 8
  vertex 0 0 10
  vertex 1.7320508 -1 8
 endloop
endfacet
facet normal 0.3779645 -0.65465367 0.65465367
 outer loop
  vertex 1.7320508 -1 8
  vertex 0 0 10
  vertex 0 -2 8
 endloop
endfacet
facet normal -0.3779645 -0.65465367 0.65465367
 outer loop
  vertex 0 -2 8
  vertex 0 0 10
  vertex -1.7320508 -1 8
 endloop
endfacet
facet normal -0 0 -1
 outer loop
  vertex 0 -1 8
  vertex 0.8660254 -0.5 8
  vertex 1.7320508 -1 8
 endloop
endfacet
facet normal 0 0 -1
 outer loop
  vertex 0 -1 8
  vertex 1.7320508 -1 8
  vertex 0 -2 8
 endloop
endfacet
facet normal -0.755929 0 0.65465367
 outer loop
  vertex -1.7320508 -1 8
  vertex 0 0 10
  vertex -1.7320508 1 8
 endloop
endfacet
facet normal -0.3779645 0.65465367 0.65465367
 outer loop
  vertex -1.7320508 1 8
  vertex 0 0 10
  vertex 0 2 8
 endloop
endfacet
endsolid 
