solid 
facet normal 0 -1 4.371139e-08
 outer loop
  vertex 0 0 0
  vertex 0 -4.371139e-08 -1
  vertex 0.8660254 -2.1855694e-08 -0.5
 endloop
endfacet
facet normal -0 -1 0
 outer loop
  vertex -1.7320508 8 0.99999964
  vertex -0.8660254 8 0.49999964
  vertex 0 8 0.99999964
 endloop
endfacet
facet normal -0 -1 -0
 outer loop
  vertex -1.7320508 8 0.99999964
  vertex 0 8 0.99999964
  vertex 0 8 1.9999996
 endloop
endfacet
facet normal 0.5 -3.871435e-08 -0.8660254
 outer loop
  vertex 0 -4.371139e-08 -1
  vertex 0 8 -1.0000004
  vertex 0.8660254 8 -0.50000036
 endloop
endfacet
facet normal 0.5 -3.871435e-08 -0.8660254
 outer loop
  vertex 0 -4.371139e-08 -1
  vertex 0.8660254 8 -0.50000036
  vertex 0.8660254 -2.1855694e-08 -0.5
 endloop
endfacet
facet normal 0 -1 4.371139e-08
 outer loop
  vertex 0 0 0
  vertex 0.8660254 -2.1855694e-08 -0.5
  vertex 0.8660254 2.1855694e-08 0.5
 endloop
endfacet
facet normal -0 -1 0
 outer loop
  vertex -1.7320508 8 0.99999964
  vertex -1.7320508 8 -1.0000004
  vertex -0.8660254 8 -0.50000036
 endloop
endfacet
facet normal -0 -1 -0
 outer loop
  vertex -1.7320508 8 0.99999964
  vertex -0.8660254 8 -0.50000036
  vertex -0.8660254 8 0.49999964
 endloop
endfacet
facet normal 1 0 0
 outer loop
  vertex 0.8660254 -2.1855694e-08 -0.5
  vertex 0.8660254 8 -0.50000036
  vertex 0.8660254 8 0.49999964
 endloop
endfacet
facet normal 1 0 0
 outer loop
  vertex 0.8660254 -2.1855694e-08 -0.5
  vertex 0.8660254 8 0.49999964
  vertex 0.8660254 2.1855694e-08 0.5
 endloop
endfacet
facet normal 0 -1 4.371139e-08
 outer loop
  vertex 0 0 0
  vertex 0.8660254 2.1855694e-08 0.5
  vertex 0 4.371139e-08 1
 endloop
endfacet
facet normal -0 -1 -0
 outer loop
  vertex -1.7320508 8 -1.0000004
  vertex 0 8 -2.0000002
  vertex 0 8 -1.0000004
 endloop
endfacet
facet normal -0 -1 -0
 outer loop
  vertex -1.7320508 8 -1.0000004
  vertex 0 8 -1.0000004
  vertex -0.8660254 8 -0.50000036
 endloop
endfacet
facet normal 0.5 3.871435e-08 0.8660254
 outer loop
  vertex 0.8660254 2.1855694e-08 0.5
  vertex 0.8660254 8 0.49999964
  vertex 0 8 0.99999964
 endloop
endfacet
facet normal 0.5 3.871435e-08 0.8660254
 outer loop
  vertex 0.8660254 2.1855694e-08 0.5
  vertex 0 8 0.99999964
  vertex 0 4.371139e-08 1
 endloop
endfacet
facet normal 0 -1 4.371139e-08
 outer loop
  vertex 0 0 0
  vertex 0 4.371139e-08 1
  vertex -0.8660254 2.1855694e-08 0.5
 endloop
endfacet
facet normal 0 -1 0
 outer loop
  vertex 0.8660254 8 -0.50000036
  vertex 0 8 -1.0000004
  vertex 0 8 -2.0000002
 endloop
endfacet
facet normal -0 -1 0
 outer loop
  vertex 0.8660254 8 -0.50000036
  vertex 0 8 -2.0000002
  vertex 1.7320508 8 -1.0000004
 endloop
endfacet
facet normal -0.5 3.871435e-08 0.8660254
 outer loop
  vertex 0 4.371139e-08 1
  vertex 0 8 0.99999964
  vertex -0.8660254 8 0.49999964
 endloop
endfacet
facet normal -0.5 3.871435e-08 0.8660254
 outer loop
  vertex 0 4.371139e-08 1
  vertex -0.8660254 8 0.49999964
  vertex -0.8660254 2.1855694e-08 0.5
 endloop
endfacet
facet normal 0 -1 4.371139e-08
 outer loop
  vertex 0 0 0
  vertex -0.8660254 2.1855694e-08 0.5
  vertex -0.8660254 -2.1855694e-08 -0.5
 endloop
endfacet
facet normal 0 -1 0
 outer loop
  vertex 0.8660254 8 0.49999964
  vertex 0.8660254 8 -0.50000036
  vertex 1.7320508 8 -1.0000004
 endloop
endfacet
facet normal -0 -1 -0
 outer loop
  vertex 0.8660254 8 0.49999964
  vertex 1.7320508 8 -1.0000004
  vertex 1.7320508 8 0.99999964
 endloop
endfacet
facet normal -1 0 0
 outer loop
  vertex -0.8660254 2.1855694e-08 0.5
  vertex -0.8660254 8 0.49999964
  vertex -0.8660254 8 -0.50000036
 endloop
endfacet
facet normal -1 0 0
 outer loop
  vertex -0.8660254 2.1855694e-08 0.5
  vertex -0.8660254 8 -0.50000036
  vertex -0.8660254 -2.1855694e-08 -0.5
 endloop
endfacet
facet normal 0 -1 4.371139e-08
 outer loop
  vertex 0 0 0
  vertex -0.8660254 -2.1855694e-08 -0.5
  vertex 0 -4.371139e-08 -1
 endloop
endfacet
facet normal -0.5 -3.871435e-08 -0.8660254
 outer loop
  vertex -0.8660254 -2.1855694e-08 -0.5
  vertex -0.8660254 8 -0.50000036
  vertex 0 8 -1.0000004
 endloop
endfacet
facet normal -0.5 -3.871435e-08 -0.8660254
 outer loop
  vertex -0.8660254 -2.1855694e-08 -0.5
  vertex 0 8 -1.0000004
  vertex 0 -4.371139e-08 -1
 endloop
endfacet
facet normal 0.37796444 0.65465367 -0.6546537
 outer loop
  vertex 0 8 -2.0000002
  vertex 0 10 -4.371139e-07
  vertex 1.7320508 8 -1.0000004
 endloop
endfacet
facet normal 0.755929 0.6546537 0
 outer loop
  vertex 1.7320508 8 -1.0000004
  vertex 0 10 -4.371139e-07
  vertex 1.7320508 8 0.99999964
 endloop
endfacet
facet normal 0.37796444 0.65465367 0.65465367
 outer loop
  vertex 1.7320508 8 0.99999964
  vertex 0 10 -4.371139e-07
  vertex 0 8 1.9999996
 endloop
endfacet
facet normal -0.37796444 0.65465367 0.65465367
 outer loop
  vertex 0 8 1.9999996
  vertex 0 10 -4.371139e-07
  vertex -1.7320508 8 0.99999964
 endloop
endfacet
facet normal -0 -1 0
 outer loop
  vertex 0 8 0.99999964
  vertex 0.8660254 8 0.49999964
  vertex 1.7320508 8 0.99999964
 endloop
endfacet
facet normal -0 -1 -0
 outer loop
  vertex 0 8 0.99999964
  vertex 1.7320508 8 0.99999964
  vertex 0 8 1.9999996
 endloop
endfacet
facet normal -0.755929 0.6546537 0
 outer loop
  vertex -1.7320508 8 0.99999964
  vertex 0 10 -4.371139e-07
  vertex -1.7320508 8 -1.0000004
 endloop
endfacet
facet normal -0.37796444 0.65465367 -0.6546537
 outer loop
  vertex -1.7320508 8 -1.0000004
  vertex 0 10 -4.371139e-07
  vertex 0 8 -2.0000002
 endloop
endfacet
endsolid 
