solid Exported from Blender-2.93.0
facet normal -0.000000 0.707107 0.707107
outer loop
vertex -0.000012 50.000000 0.000000
vertex -20.710682 49.999996 0.000000
vertex -10.354680 24.999998 25.000000
endloop
endfacet
facet normal -0.000000 0.707107 0.707107
outer loop
vertex -0.000012 50.000000 0.000000
vertex -10.354680 24.999998 25.000000
vertex -0.000004 25.000000 25.000000
endloop
endfacet
facet normal -0.499995 0.499995 0.707113
outer loop
vertex -20.710682 49.999996 0.000000
vertex -35.355339 35.355335 0.000000
vertex -17.677341 17.677336 25.000000
endloop
endfacet
facet normal -0.499995 0.499995 0.707113
outer loop
vertex -20.710682 49.999996 0.000000
vertex -17.677341 17.677336 25.000000
vertex -10.354680 24.999998 25.000000
endloop
endfacet
facet normal -0.499995 0.499996 0.707113
outer loop
vertex -50.000004 20.710669 0.000000
vertex -25.000002 10.354672 25.000000
vertex -17.677341 17.677336 25.000000
endloop
endfacet
facet normal -0.499995 0.499995 0.707113
outer loop
vertex -50.000004 20.710669 0.000000
vertex -17.677341 17.677336 25.000000
vertex -35.355339 35.355335 0.000000
endloop
endfacet
facet normal -0.707107 0.000000 0.707107
outer loop
vertex -50.000000 -0.000008 0.000000
vertex -25.000000 -0.000002 25.000000
vertex -25.000002 10.354672 25.000000
endloop
endfacet
facet normal -0.707107 -0.000000 0.707107
outer loop
vertex -50.000000 -0.000008 0.000000
vertex -25.000002 10.354672 25.000000
vertex -50.000004 20.710669 0.000000
endloop
endfacet
facet normal 0.000000 -0.707107 0.707107
outer loop
vertex 0.000004 -50.000000 0.000000
vertex 20.710676 -50.000000 0.000000
vertex 10.354676 -25.000000 25.000000
endloop
endfacet
facet normal 0.000000 -0.707107 0.707107
outer loop
vertex 0.000004 -50.000000 0.000000
vertex 10.354676 -25.000000 25.000000
vertex 0.000001 -25.000000 25.000000
endloop
endfacet
facet normal 0.499995 -0.499995 0.707114
outer loop
vertex 20.710676 -50.000000 0.000000
vertex 35.355335 -35.355343 0.000000
vertex 17.677338 -17.677338 25.000000
endloop
endfacet
facet normal 0.499995 -0.499995 0.707113
outer loop
vertex 20.710676 -50.000000 0.000000
vertex 17.677338 -17.677338 25.000000
vertex 10.354676 -25.000000 25.000000
endloop
endfacet
facet normal 0.499995 -0.499995 0.707113
outer loop
vertex 50.000000 -20.710676 0.000000
vertex 25.000000 -10.354676 25.000000
vertex 17.677338 -17.677338 25.000000
endloop
endfacet
facet normal 0.499995 -0.499995 0.707113
outer loop
vertex 50.000000 -20.710676 0.000000
vertex 17.677338 -17.677338 25.000000
vertex 35.355335 -35.355343 0.000000
endloop
endfacet
facet normal 0.707107 0.000000 0.707107
outer loop
vertex 50.000000 0.000001 0.000000
vertex 25.000000 0.000001 25.000000
vertex 25.000000 -10.354676 25.000000
endloop
endfacet
facet normal 0.707107 0.000000 0.707107
outer loop
vertex 50.000000 0.000001 0.000000
vertex 25.000000 -10.354676 25.000000
vertex 50.000000 -20.710676 0.000000
endloop
endfacet
facet normal -0.707107 -0.000000 0.707107
outer loop
vertex -50.000000 -0.000008 0.000000
vertex -49.999996 -20.710678 0.000000
vertex -24.999998 -10.354677 25.000000
endloop
endfacet
facet normal -0.707107 0.000000 0.707107
outer loop
vertex -50.000000 -0.000008 0.000000
vertex -24.999998 -10.354677 25.000000
vertex -25.000000 -0.000002 25.000000
endloop
endfacet
facet normal -0.499995 -0.499995 0.707113
outer loop
vertex -49.999996 -20.710678 0.000000
vertex -35.355339 -35.355335 0.000000
vertex -17.677338 -17.677340 25.000000
endloop
endfacet
facet normal -0.499996 -0.499995 0.707114
outer loop
vertex -49.999996 -20.710678 0.000000
vertex -17.677338 -17.677340 25.000000
vertex -24.999998 -10.354677 25.000000
endloop
endfacet
facet normal -0.499995 -0.499995 0.707113
outer loop
vertex -20.710674 -50.000004 0.000000
vertex -10.354675 -25.000002 25.000000
vertex -17.677338 -17.677340 25.000000
endloop
endfacet
facet normal -0.499995 -0.499995 0.707113
outer loop
vertex -20.710674 -50.000004 0.000000
vertex -17.677338 -17.677340 25.000000
vertex -35.355339 -35.355335 0.000000
endloop
endfacet
facet normal 0.000000 -0.707107 0.707107
outer loop
vertex 0.000004 -50.000000 0.000000
vertex 0.000001 -25.000000 25.000000
vertex -10.354675 -25.000002 25.000000
endloop
endfacet
facet normal 0.000000 -0.707107 0.707107
outer loop
vertex 0.000004 -50.000000 0.000000
vertex -10.354675 -25.000002 25.000000
vertex -20.710674 -50.000004 0.000000
endloop
endfacet
facet normal 0.707107 0.000000 0.707107
outer loop
vertex 50.000000 0.000001 0.000000
vertex 49.999996 20.710682 0.000000
vertex 24.999998 10.354680 25.000000
endloop
endfacet
facet normal 0.707107 0.000000 0.707107
outer loop
vertex 50.000000 0.000001 0.000000
vertex 24.999998 10.354680 25.000000
vertex 25.000000 0.000001 25.000000
endloop
endfacet
facet normal 0.499995 0.499995 0.707113
outer loop
vertex 49.999996 20.710682 0.000000
vertex 35.355335 35.355339 0.000000
vertex 17.677340 17.677338 25.000000
endloop
endfacet
facet normal 0.499995 0.499995 0.707114
outer loop
vertex 49.999996 20.710682 0.000000
vertex 17.677340 17.677338 25.000000
vertex 24.999998 10.354680 25.000000
endloop
endfacet
facet normal 0.499995 0.499995 0.707113
outer loop
vertex 20.710669 50.000004 0.000000
vertex 10.354672 25.000002 25.000000
vertex 17.677340 17.677338 25.000000
endloop
endfacet
facet normal 0.499995 0.499995 0.707113
outer loop
vertex 20.710669 50.000004 0.000000
vertex 17.677340 17.677338 25.000000
vertex 35.355335 35.355339 0.000000
endloop
endfacet
facet normal -0.000000 0.707107 0.707107
outer loop
vertex -0.000012 50.000000 0.000000
vertex -0.000004 25.000000 25.000000
vertex 10.354672 25.000002 25.000000
endloop
endfacet
facet normal -0.000000 0.707107 0.707107
outer loop
vertex -0.000012 50.000000 0.000000
vertex 10.354672 25.000002 25.000000
vertex 20.710669 50.000004 0.000000
endloop
endfacet
facet normal 0.000000 0.000000 -1.000000
outer loop
vertex 0.000004 -50.000000 0.000000
vertex -20.710674 -50.000004 0.000000
vertex -0.000004 0.000000 0.000000
endloop
endfacet
facet normal 0.000000 0.000000 -1.000000
outer loop
vertex -20.710674 -50.000004 0.000000
vertex -35.355339 -35.355335 0.000000
vertex -0.000004 0.000000 0.000000
endloop
endfacet
facet normal 0.000000 0.000000 -1.000000
outer loop
vertex -49.999996 -20.710678 0.000000
vertex -0.000004 0.000000 0.000000
vertex -35.355339 -35.355335 0.000000
endloop
endfacet
facet normal 0.000000 0.000000 -1.000000
outer loop
vertex -49.999996 -20.710678 0.000000
vertex -50.000000 -0.000008 0.000000
vertex -0.000004 0.000000 0.000000
endloop
endfacet
facet normal 0.000000 0.000000 -1.000000
outer loop
vertex -50.000004 20.710669 0.000000
vertex -0.000004 0.000000 0.000000
vertex -50.000000 -0.000008 0.000000
endloop
endfacet
facet normal 0.000000 0.000000 -1.000000
outer loop
vertex -50.000004 20.710669 0.000000
vertex -35.355339 35.355335 0.000000
vertex -0.000004 0.000000 0.000000
endloop
endfacet
facet normal 0.000000 0.000000 -1.000000
outer loop
vertex -20.710682 49.999996 0.000000
vertex -0.000004 0.000000 0.000000
vertex -35.355339 35.355335 0.000000
endloop
endfacet
facet normal 0.000000 0.000000 -1.000000
outer loop
vertex -20.710682 49.999996 0.000000
vertex -0.000012 50.000000 0.000000
vertex -0.000004 0.000000 0.000000
endloop
endfacet
facet normal 0.000000 0.000000 -1.000000
outer loop
vertex 20.710669 50.000004 0.000000
vertex -0.000004 0.000000 0.000000
vertex -0.000012 50.000000 0.000000
endloop
endfacet
facet normal 0.000000 0.000000 -1.000000
outer loop
vertex 20.710669 50.000004 0.000000
vertex 35.355335 35.355339 0.000000
vertex -0.000004 0.000000 0.000000
endloop
endfacet
facet normal 0.000000 0.000000 -1.000000
outer loop
vertex 49.999996 20.710682 0.000000
vertex -0.000004 0.000000 0.000000
vertex 35.355335 35.355339 0.000000
endloop
endfacet
facet normal 0.000000 0.000000 -1.000000
outer loop
vertex 49.999996 20.710682 0.000000
vertex 50.000000 0.000001 0.000000
vertex -0.000004 0.000000 0.000000
endloop
endfacet
facet normal 0.000000 0.000000 -1.000000
outer loop
vertex 50.000000 -20.710676 0.000000
vertex -0.000004 0.000000 0.000000
vertex 50.000000 0.000001 0.000000
endloop
endfacet
facet normal 0.000000 0.000000 -1.000000
outer loop
vertex 50.000000 -20.710676 0.000000
vertex 35.355335 -35.355343 0.000000
vertex -0.000004 0.000000 0.000000
endloop
endfacet
facet normal 0.000000 0.000000 -1.000000
outer loop
vertex 20.710676 -50.000000 0.000000
vertex -0.000004 0.000000 0.000000
vertex 35.355335 -35.355343 0.000000
endloop
endfacet
facet normal 0.000000 0.000000 -1.000000
outer loop
vertex 0.000004 -50.000000 0.000000
vertex -0.000004 0.000000 0.000000
vertex 20.710676 -50.000000 0.000000
endloop
endfacet
facet normal -0.000000 -0.000000 1.000000
outer loop
vertex -25.000000 -0.000002 25.000000
vertex -24.999998 -10.354677 25.000000
vertex -0.000000 -0.000000 25.000002
endloop
endfacet
facet normal 0.000000 0.000000 1.000000
outer loop
vertex -17.677341 17.677336 25.000000
vertex -25.000002 10.354672 25.000000
vertex -0.000000 -0.000000 25.000002
endloop
endfacet
facet normal 0.000000 0.000000 1.000000
outer loop
vertex -0.000004 25.000000 25.000000
vertex -10.354680 24.999998 25.000000
vertex -0.000000 -0.000000 25.000002
endloop
endfacet
facet normal 0.000000 0.000000 1.000000
outer loop
vertex 17.677340 17.677338 25.000000
vertex 10.354672 25.000002 25.000000
vertex -0.000000 -0.000000 25.000002
endloop
endfacet
facet normal 0.000000 0.000000 1.000000
outer loop
vertex 25.000000 0.000001 25.000000
vertex 24.999998 10.354680 25.000000
vertex -0.000000 -0.000000 25.000002
endloop
endfacet
facet normal 0.000000 -0.000000 1.000000
outer loop
vertex 17.677338 -17.677338 25.000000
vertex 25.000000 -10.354676 25.000000
vertex -0.000000 -0.000000 25.000002
endloop
endfacet
facet normal 0.000000 -0.000000 1.000000
outer loop
vertex 0.000001 -25.000000 25.000000
vertex 10.354676 -25.000000 25.000000
vertex -0.000000 -0.000000 25.000002
endloop
endfacet
facet normal 0.000000 -0.000000 1.000000
outer loop
vertex -17.677338 -17.677340 25.000000
vertex -10.354675 -25.000002 25.000000
vertex -0.000000 -0.000000 25.000002
endloop
endfacet
facet normal 0.000000 -0.000000 1.000000
outer loop
vertex -25.000000 -0.000002 25.000000
vertex -0.000000 -0.000000 25.000002
vertex -25.000002 10.354672 25.000000
endloop
endfacet
facet normal 0.000000 0.000000 1.000000
outer loop
vertex -17.677341 17.677336 25.000000
vertex -0.000000 -0.000000 25.000002
vertex -10.354680 24.999998 25.000000
endloop
endfacet
facet normal 0.000000 0.000000 1.000000
outer loop
vertex -0.000004 25.000000 25.000000
vertex -0.000000 -0.000000 25.000002
vertex 10.354672 25.000002 25.000000
endloop
endfacet
facet normal 0.000000 0.000000 1.000000
outer loop
vertex 17.677340 17.677338 25.000000
vertex -0.000000 -0.000000 25.000002
vertex 24.999998 10.354680 25.000000
endloop
endfacet
facet normal 0.000000 0.000000 1.000000
outer loop
vertex 25.000000 0.000001 25.000000
vertex -0.000000 -0.000000 25.000002
vertex 25.000000 -10.354676 25.000000
endloop
endfacet
facet normal 0.000000 -0.000000 1.000000
outer loop
vertex 17.677338 -17.677338 25.000000
vertex -0.000000 -0.000000 25.000002
vertex 10.354676 -25.000000 25.000000
endloop
endfacet
facet normal 0.000000 -0.000000 1.000000
outer loop
vertex 0.000001 -25.000000 25.000000
vertex -0.000000 -0.000000 25.000002
vertex -10.354675 -25.000002 25.000000
endloop
endfacet
facet normal 0.000000 -0.000000 1.000000
outer loop
vertex -17.677338 -17.677340 25.000000
vertex -0.000000 -0.000000 25.000002
vertex -24.999998 -10.354677 25.000000
endloop
endfacet
endsolid Exported from Blender-2.93.0
